:version 1.10
:name ASF
:units
  mass 1
  length 1
  angle deg
:documentation
  ASF file generated by Kaydara
:root
  axis xyz
  order  tx ty tz rx ry rz
  position 0 0 0
  orientation 0 0 0
:bonedata
  begin
    id 1
    name RightUpLegDummy
    direction -0.718183 -0.695806 0.00816078
    length 4.904
    axis 0 0 0 xyz
  end
  begin
    id 2
    name RightUpLeg
    direction -0.0736652 -0.994202 0.0783343
    length 17.4976
    axis -2.72909 -3.00389 -4.00133 xyz
    dof rx ry rz
  end
  begin
    id 3
    name RightLeg
    direction -0.0389037 -0.994596 -0.0962598
    length 16.5821
    axis 3.95836 -18.5909 -4.46993 xyz
    dof rx ry rz
  end
  begin
    id 4
    name RightFoot
    direction -0.311643 -0.412678 0.855906
    length 3.77069
    axis -1.99483 -18.8351 -3.27644 xyz
    dof rx ry rz
  end
  begin
    id 5
    name RightToes
    direction -0.317852 0.0389852 0.947339
    length 3.85082
    axis -2.00228 -18.1713 -3.25211 xyz
    dof rx ry rz
  end
  begin
    id 6
    name SpineDummy
    direction 8.3039e-015 1 4.44677e-016
    length 4.6813
    axis 0 0 0 xyz
  end
  begin
    id 7
    name Spine
    direction -0.000262373 0.999988 0.00493267
    length 10.1015
    axis -0.00246081 0.00062579 0.0150362 xyz
    dof rx ry rz
  end
  begin
    id 8
    name Spine1
    direction 0 0 0
    length 0
    axis -0.00349562 0.000650293 0.0196666 xyz
    dof rx ry rz
  end
  begin
    id 9
    name HEadDummy
    direction -0.000343232 0.999999 0.00123745
    length 3.43865
    axis -0.00349562 0.000650293 0.0196666 xyz
  end
  begin
    id 10
    name HEad
    direction -0.0461221 0.980933 0.188796
    length 5.12695
    axis -0.00351404 -7.04812 0.0199272 xyz
    dof rx ry rz
  end
  begin
    id 11
    name LeftShoulder1Dummy
    direction 0.998904 -0.0399089 -0.0244534
    length 3.5433
    axis -0.00349562 0.000650293 0.0196666 xyz
  end
  begin
    id 12
    name LeftShoulder1
    direction 0.99951 1.64443e-005 0.0312999
    length 4.05031
    axis -0.00349562 0.000650293 0.0196666 xyz
    dof rx ry rz
  end
  begin
    id 13
    name LeftArm
    direction 0.984791 0.0515299 0.165927
    length 12.9126
    axis -64.823 -10.7743 5.20463 xyz
    dof rx ry rz
  end
  begin
    id 14
    name LeftForeArm
    direction 0.984968 0.0534808 0.16425
    length 10.8596
    axis -30.0462 -7.70601 1.87451 xyz
    dof rx ry rz
  end
  begin
    id 15
    name LeftHand
    direction 0.975871 0.0289682 0.216418
    length 6.62295
    axis -20.1348 -6.98077 1.86072 xyz
    dof rx ry rz
  end
  begin
    id 16
    name RightShoulderDummy
    direction -0.998877 -0.0405946 -0.0244307
    length 3.5433
    axis -0.00349562 0.000650293 0.0196666 xyz
  end
  begin
    id 17
    name RightShoulder
    direction -0.998933 -0.0249743 -0.0388558
    length 4.05031
    axis -0.0205316 -4.02113 1.41395 xyz
    dof rx ry rz
  end
  begin
    id 18
    name RightArm
    direction -0.997559 0.068664 0.0127103
    length 12.9638
    axis -67.3882 1.84188 -6.15987 xyz
    dof rx ry rz
  end
  begin
    id 19
    name RightForeArm
    direction -0.991508 0.0912848 0.0926241
    length 10.8312
    axis -22.1975 3.41087 -4.28711 xyz
    dof rx ry rz
  end
  begin
    id 20
    name RightHand
    direction -0.989262 0.0600788 0.133232
    length 6.57864
    axis -12.2911 2.17515 -4.39675 xyz
    dof rx ry rz
  end
  begin
    id 21
    name LeftUpLegDummy
    direction 0.718183 -0.695806 0.00816078
    length 4.904
    axis 0 0 0 xyz
  end
  begin
    id 22
    name LeftUpLeg
    direction 0.0831398 -0.99469 0.0606531
    length 17.4976
    axis -1.71016 2.29552 4.63832 xyz
    dof rx ry rz
  end
  begin
    id 23
    name LeftLeg
    direction 0.0498442 -0.991778 -0.117862
    length 16.5821
    axis 5.13757 15.5727 5.13348 xyz
    dof rx ry rz
  end
  begin
    id 24
    name LeftFoot
    direction 0.269026 -0.433896 0.85986
    length 3.77069
    axis -0.576502 15.6961 4.10267 xyz
    dof rx ry rz
  end
  begin
    id 25
    name LeftToes
    direction 0.277311 0.0251143 0.960452
    length 3.85048
    axis -0.576502 15.6961 4.10267 xyz
    dof rx ry rz
  end
:hierarchy
  begin
    root RightUpLegDummy SpineDummy LeftUpLegDummy
    RightUpLegDummy RightUpLeg
    RightUpLeg RightLeg
    RightLeg RightFoot
    RightFoot RightToes
    SpineDummy Spine
    Spine Spine1
    Spine1 HEadDummy LeftShoulder1Dummy RightShoulderDummy
    HEadDummy HEad
    LeftShoulder1Dummy LeftShoulder1
    LeftShoulder1 LeftArm
    LeftArm LeftForeArm
    LeftForeArm LeftHand
    RightShoulderDummy RightShoulder
    RightShoulder RightArm
    RightArm RightForeArm
    RightForeArm RightHand
    LeftUpLegDummy LeftUpLeg
    LeftUpLeg LeftLeg
    LeftLeg LeftFoot
    LeftFoot LeftToes
  end

:SAMPLES-PER-SECOND 30
:FULLY-SPECIFIED
:DEGREES
16
root  2.79844 40.0079 -107.642 -0.815542 -4.60557 0.746303
RightUpLeg  1.97287 0.369743 4.08814
RightLeg  1.22226 -9.80528 1.45906
RightFoot  -3.49041 0.197707 -2.27137
RightToes  5.82077e-011 -3.18055e-015 -2.98177e-016
Spine  -0.632078 0.818676 -0.098867
Spine1  5.48428 0.495856 1.91997
HEad  -10.2205 3.80392 -0.941751
LeftShoulder1  -3.88251e-019 9.70628e-020 -3.87848e-018
LeftArm  -27.5591 56.5984 -72.9801
LeftForeArm  0.00768683 -11.7945 -3.27798
LeftHand  -0.456487 -1.22021 8.663
RightShoulder  8.33054 10.9482 38.5489
RightArm  12.8526 -43.0933 12.363
RightForeArm  13.0185 16.1082 -5.64055
RightHand  -1.05081 3.09124 -14.2138
LeftUpLeg  1.65314 -3.22079 -4.40075
LeftLeg  1.35849 8.6715 1.65725
LeftFoot  -2.35902 -0.153775 1.58838
LeftToes  7.79675e-011 9.80247e-012 -3.28897e-011
17
root  2.78715 40.0084 -107.62 -0.754864 -4.67463 0.773185
RightUpLeg  1.91466 0.352974 4.06789
RightLeg  1.27009 -9.7209 1.4533
RightFoot  -3.54413 0.198858 -2.28962
RightToes  5.82077e-011 -3.18055e-015 -2.98177e-016
Spine  -0.768686 0.79635 -0.0623319
Spine1  5.80407 0.463809 1.93938
HEad  -10.4719 3.82313 -1.00078
LeftShoulder1  -3.88251e-019 9.70628e-020 -3.87848e-018
LeftArm  -27.8695 56.4595 -73.4115
LeftForeArm  -0.176046 -11.5798 -3.32216
LeftHand  -0.423732 -0.679334 8.80623
RightShoulder  8.31897 10.9487 38.4986
RightArm  12.6755 -43.1387 12.4754
RightForeArm  12.8962 16.0516 -5.62441
RightHand  -1.02747 2.70105 -14.5457
LeftUpLeg  1.65978 -3.179 -4.3831
LeftLeg  1.31235 8.69309 1.58029
LeftFoot  -2.37807 -0.15337 1.58412
LeftToes  7.79675e-011 9.80247e-012 -3.28897e-011
18
root  2.7655 40.0122 -107.559 -0.715164 -5.1186 0.753916
RightUpLeg  1.98649 0.48735 4.15969
RightLeg  1.16119 -9.41963 1.42458
RightFoot  -3.55855 0.198192 -2.29185
RightToes  5.82077e-011 -3.18055e-015 -2.98177e-016
Spine  -1.14634 0.939771 0.181476
Spine1  6.34089 0.638256 1.72791
HEad  -10.6076 3.86918 -0.984974
LeftShoulder1  -3.88251e-019 9.70628e-020 -3.87848e-018
LeftArm  -27.9878 56.4658 -73.807
LeftForeArm  -0.674744 -11.6848 -3.42297
LeftHand  -0.354937 0.552755 9.33204
RightShoulder  8.31264 10.9481 38.4687
RightArm  12.6701 -43.2611 12.4448
RightForeArm  12.8907 16.0545 -5.64639
RightHand  -1.04021 2.87095 -14.4349
LeftUpLeg  1.86944 -3.01909 -4.28597
LeftLeg  1.13076 8.97772 1.40492
LeftFoot  -2.38277 -0.150109 1.54984
LeftToes  7.79675e-011 9.80247e-012 -3.28897e-011
19
root  2.71091 40.013 -107.498 -0.635523 -5.65309 0.659449
RightUpLeg  2.03964 0.826018 4.45692
RightLeg  0.990893 -9.25405 1.30745
RightFoot  -3.55113 0.197571 -2.29761
RightToes  5.82077e-011 -3.18055e-015 -2.98177e-016
Spine  -1.52513 1.18488 0.332827
Spine1  6.83563 0.897548 1.60423
HEad  -10.6255 3.83322 -0.84713
LeftShoulder1  -3.88251e-019 9.70628e-020 -3.87848e-018
LeftArm  -28.0129 56.4597 -74.1087
LeftForeArm  -0.891713 -11.9091 -3.47123
LeftHand  -0.311104 1.25368 9.64696
RightShoulder  8.30458 10.9444 38.4383
RightArm  12.7929 -43.461 12.3469
RightForeArm  12.8564 16.0856 -5.65981
RightHand  -1.05688 3.08877 -14.2983
LeftUpLeg  2.02124 -2.76911 -4.04924
LeftLeg  1.01739 9.22919 1.25621
LeftFoot  -2.42144 -0.145083 1.497
LeftToes  7.79675e-011 9.80247e-012 -3.28897e-011
20
root  2.66228 40.0098 -107.454 -0.450372 -5.82414 0.523808
RightUpLeg  1.9998 1.03058 4.70942
RightLeg  0.838216 -9.30429 1.34649
RightFoot  -3.55511 0.203955 -2.37881
RightToes  5.82077e-011 -3.18055e-015 -2.98177e-016
Spine  -1.89992 1.27777 0.500368
Spine1  7.26295 0.996711 1.49235
HEad  -10.6371 3.69367 -0.687748
LeftShoulder1  -3.88251e-019 9.70628e-020 -3.87848e-018
LeftArm  -28.0295 56.3274 -74.3365
LeftForeArm  -0.719102 -12.0331 -3.46171
LeftHand  -0.326976 1.01758 9.5708
RightShoulder  8.29187 10.9378 38.3917
RightArm  12.7476 -43.6483 12.3554
RightForeArm  12.8408 16.0385 -5.61274
RightHand  -1.05652 2.96823 -14.493
LeftUpLeg  1.88621 -2.60801 -3.81196
LeftLeg  1.10532 9.20152 1.2783
LeftFoot  -2.53555 -0.135694 1.3983
LeftToes  7.79675e-011 9.80247e-012 -3.28897e-011
21
root  2.62102 40.0051 -107.43 -0.155594 -5.76324 0.436774
RightUpLeg  1.78771 1.04292 4.81423
RightLeg  0.788262 -9.37221 1.50556
RightFoot  -3.59954 0.214007 -2.50161
RightToes  5.82077e-011 -3.18055e-015 -2.98177e-016
Spine  -1.92056 1.20483 0.576149
Spine1  7.12172 0.917469 1.473
HEad  -10.6132 3.61857 -0.590613
LeftShoulder1  -3.88251e-019 9.70628e-020 -3.87848e-018
LeftArm  -28.043 56.3472 -74.4726
LeftForeArm  -0.67174 -12.1719 -3.4698
LeftHand  -0.351348 0.61892 9.37128
RightShoulder  8.29182 10.9392 38.3885
RightArm  12.5313 -43.7948 12.3114
RightForeArm  13.0903 15.889 -5.51501
RightHand  -1.0574 2.87614 -14.6602
LeftUpLeg  1.4832 -2.50513 -3.62795
LeftLeg  1.3574 9.04446 1.34885
LeftFoot  -2.66352 -0.125283 1.28886
LeftToes  7.79675e-011 9.80247e-012 -3.28897e-011
22
root  2.58087 39.9977 -107.408 0.162719 -5.76402 0.446417
RightUpLeg  1.42562 0.999082 4.81956
RightLeg  0.936635 -9.32148 1.55607
RightFoot  -3.72554 0.21681 -2.55427
RightToes  5.82077e-011 -3.18055e-015 -2.98177e-016
Spine  -1.72035 1.13892 0.60925
Spine1  6.67311 0.8597 1.45907
HEad  -10.5618 3.57156 -0.494626
LeftShoulder1  -3.88251e-019 9.70628e-020 -3.87848e-018
LeftArm  -27.9815 56.3898 -74.5455
LeftForeArm  -0.671522 -12.2355 -3.54067
LeftHand  -0.357338 0.524646 9.33883
RightShoulder  8.28662 10.9374 38.3674
RightArm  12.2943 -44.0119 12.2005
RightForeArm  13.4487 15.76 -5.48671
RightHand  -1.07594 3.13014 -14.4858
LeftUpLeg  1.05935 -2.51408 -3.57865
LeftLeg  1.58094 9.08859 1.42969
LeftFoot  -2.72785 -0.12249 1.2595
LeftToes  7.79675e-011 9.80247e-012 -3.28897e-011
23
root  2.53691 39.9843 -107.376 0.412954 -5.73724 0.483455
RightUpLeg  1.07967 0.988328 4.83967
RightLeg  1.20768 -9.34814 1.47083
RightFoot  -3.92476 0.214585 -2.5621
RightToes  5.82077e-011 -3.18055e-015 -2.98177e-016
Spine  -1.37606 1.10529 0.676154
Spine1  6.14154 0.843099 1.43827
HEad  -10.4398 3.41533 -0.404362
LeftShoulder1  -3.88251e-019 9.70628e-020 -3.87848e-018
LeftArm  -27.7497 56.1678 -74.6273
LeftForeArm  0.164858 -11.8569 -3.73351
LeftHand  -0.380211 0.424548 9.72094
RightShoulder  8.26593 10.9252 38.2948
RightArm  12.2093 -44.3151 11.9966
RightForeArm  13.6574 15.7015 -5.51253
RightHand  -1.09669 3.35881 -14.3877
LeftUpLeg  0.728568 -2.68364 -3.63454
LeftLeg  1.7644 9.23324 1.64383
LeftFoot  -2.79652 -0.118849 1.22123
LeftToes  7.79675e-011 9.80247e-012 -3.28897e-011
24
root  2.48671 39.9671 -107.342 0.607185 -5.52376 0.498284
RightUpLeg  0.834714 0.932684 4.87015
RightLeg  1.46518 -9.52108 1.43773
RightFoot  -4.16286 0.214009 -2.61407
RightToes  5.82077e-011 -3.18055e-015 -2.98177e-016
Spine  -1.0241 1.02743 0.782582
Spine1  5.72248 0.775242 1.43345
HEad  -10.3327 3.18119 -0.392251
LeftShoulder1  -3.88251e-019 9.70628e-020 -3.87848e-018
LeftArm  -27.4425 55.5163 -74.8099
LeftForeArm  2.15897 -10.8559 -4.02302
LeftHand  -0.43773 0.101539 10.4715
RightShoulder  8.25717 10.9176 38.2696
RightArm  12.0386 -44.4819 11.8026
RightForeArm  13.9116 15.5415 -5.43155
RightHand  -1.10626 3.23308 -14.7164
LeftUpLeg  0.377233 -2.89021 -3.67482
LeftLeg  2.08112 9.21559 1.97556
LeftFoot  -2.97041 -0.0974955 0.996793
LeftToes  7.79675e-011 9.80247e-012 -3.28897e-011
25
root  2.42621 39.9479 -107.308 0.817053 -5.27788 0.507988
RightUpLeg  0.596918 0.812818 4.88397
RightLeg  1.70967 -9.65241 1.48971
RightFoot  -4.42913 0.211946 -2.65375
RightToes  5.82077e-011 -3.18055e-015 -2.98177e-016
Spine  -0.822741 0.922553 0.856023
Spine1  5.53616 0.662611 1.50164
HEad  -10.3222 3.11802 -0.480251
LeftShoulder1  -3.88251e-019 9.70628e-020 -3.87848e-018
LeftArm  -27.3138 54.6251 -75.1443
LeftForeArm  4.35025 -9.6456 -4.26868
LeftHand  -0.495943 -0.162139 11.2719
RightShoulder  8.27854 10.9275 38.3507
RightArm  11.3721 -44.3198 11.8118
RightForeArm  14.724 15.0661 -5.13939
RightHand  -1.11504 3.11672 -15.0261
LeftUpLeg  -0.105028 -2.94145 -3.60594
LeftLeg  2.64255 9.0352 2.24875
LeftFoot  -3.24193 -0.0696457 0.704104
LeftToes  7.79675e-011 9.80247e-012 -3.28897e-011
26
root  2.35648 39.9224 -107.267 1.0308 -5.13126 0.498178
RightUpLeg  0.323535 0.755429 4.96518
RightLeg  2.02594 -9.74668 1.44666
RightFoot  -4.74378 0.201312 -2.59375
RightToes  5.82077e-011 -3.18055e-015 -2.98177e-016
Spine  -0.698019 0.805227 0.957621
Spine1  5.48116 0.534642 1.5983
HEad  -10.3066 3.3813 -0.560894
LeftShoulder1  -3.88251e-019 9.70628e-020 -3.87848e-018
LeftArm  -27.5068 53.8551 -75.5288
LeftForeArm  5.77655 -8.80425 -4.31903
LeftHand  -0.532564 -0.374854 11.6306
RightShoulder  8.3112 10.9456 38.4676
RightArm  10.2989 -43.9247 12.1086
RightForeArm  16.0497 14.3197 -4.72762
RightHand  -1.12567 3.2518 -14.9386
LeftUpLeg  -0.64816 -2.84735 -3.43717
LeftLeg  3.39174 8.76309 2.45463
LeftFoot  -3.59848 -0.0581704 0.585481
LeftToes  7.79675e-011 9.80247e-012 -3.28897e-011
27
root  2.27973 39.885 -107.217 1.1796 -4.94314 0.43895
RightUpLeg  0.0617898 0.833163 5.18829
RightLeg  2.48291 -10.0287 1.18569
RightFoot  -5.16169 0.186974 -2.5042
RightToes  5.82077e-011 -3.18055e-015 -2.98177e-016
Spine  -0.406286 0.626101 1.12341
Spine1  5.35523 0.345385 1.72194
HEad  -10.2507 3.77485 -0.539268
LeftShoulder1  -3.88251e-019 9.70628e-020 -3.87848e-018
LeftArm  -27.8355 53.3679 -75.8405
LeftForeArm  6.29685 -8.60389 -4.21028
LeftHand  -0.55212 -0.667279 11.4468
RightShoulder  8.32621 10.9545 38.5198
RightArm  9.41061 -43.5497 12.5854
RightForeArm  17.1317 13.6604 -4.3859
RightHand  -1.11232 3.19709 -14.8563
LeftUpLeg  -1.18724 -2.75277 -3.23215
LeftLeg  4.30398 8.36725 2.77653
LeftFoot  -4.12365 -0.0447523 0.427845
LeftToes  7.79675e-011 9.80247e-012 -3.28897e-011
